<svg xmlns="http://www.w3.org/2000/svg" xmlns:xlink="http://www.w3.org/1999/xlink" width="1151" height="1098" viewBox="0 0 1151 1098"><defs><style>.a,.ab,.ac,.ae,.an,.g,.x,.y{fill:#fff;}.a{stroke:#707070;}.b{clip-path:url(#a);}.c{fill:#676cf7;}.d{fill:#ebebeb;}.e{fill:#013d67;}.f{fill:#176391;}.h{fill:#aaa;}.i{fill:#6d6d6d;}.j{fill:#e24c39;}.k{fill:#e7bb00;}.l{fill:#2ed000;}.m{fill:#282828;}.n{fill:#545454;}.o{fill:#666;}.p{fill:#202124;}.q{fill:#935850;}.r{fill:#80483e;}.s{fill:#3256b8;}.t{fill:#3a4f76;}.u{fill:#233555;}.v{fill:#536274;}.w{fill:#6b7a88;}.x{font-size:42px;}.ab,.ac,.ae,.ah,.ak,.an,.x,.y{font-family:Montserrat-Bold, Montserrat;font-weight:700;}.y{font-size:21px;}.z{fill:#2d7272;}.aa{fill:#4aaaae;}.ab{font-size:25px;}.ac{font-size:23px;}.ad{fill:#153477;}.ae,.ah{font-size:28px;}.af{fill:#b99a18;}.ag{fill:#ffd72f;}.ah,.ak{fill:#403a3a;}.ai{fill:#e2e2e2;}.aj{fill:#f2f2f2;}.ak{font-size:19px;}.al{fill:#d19847;}.am{fill:#ffaf2f;}.an{font-size:17px;}</style><clipPath id="a"><rect class="a" width="1151" height="999" transform="translate(769)"/></clipPath></defs><g transform="translate(-769)"><g class="b"><rect class="c" width="1209" height="1209" rx="216" transform="matrix(0.809, 0.588, -0.588, 0.809, 1402.632, -699.867)"/></g><g transform="translate(-112.976)"><path class="d" d="M687.653,414.439c-3.5,37.723-86.533,66.406-360.508,68.911S23.409,424.7,23.53,409.252c84.081-11.815,329.347-37.723,663.5,1.186a8.717,8.717,0,0,1,.62,4Z" transform="translate(1157.927 531.703)"/><path class="e" d="M124.15,434.277v8.339l365.2,2.56v-10.9l-7.908-17.837-350.97,6.17" transform="translate(1192.866 540.951)"/><path class="f" d="M489.347,441.594H124.15l6.319-11.667,18.713-34.557H468.855l12.583,28.386Z" transform="translate(1192.866 533.635)"/><path class="f" d="M482.433,213.782,466.522,430.446,465.74,441.2l-324-7.423L141.217,423,130.87,210.01Z" transform="translate(1195.2 469.27)"/><path class="g" d="M138.94,215.56l329.818,3.7-17.784,201.48L151.725,416.3Z" transform="translate(1198.002 471.198)"/><path class="e" d="M463.855,375.55l-.781,10.751-324-7.423L138.55,368.1Z" transform="translate(1197.866 524.166)"/><path class="e" d="M419.218,419.795c-16.841,2.088-26.15.471-23.752-11.681A34.207,34.207,0,0,1,397,402.725c6.265-17.016,19.845-9.431,19.845-9.431,5.7,5.187,10.778,10.778,12.57,15.493C431.572,414.244,429.444,418.528,419.218,419.795Z" transform="translate(1286.949 532.329)"/><path class="f" d="M429.36,408.838c-1.347,2.263-4.5,3.92-10.2,4.635-13.3,1.657-21.906,1-23.752-5.389a34.2,34.2,0,0,1,1.536-5.389c6.265-17.016,19.845-9.431,19.845-9.431C422.49,398.532,427.542,404.123,429.36,408.838Z" transform="translate(1287.059 532.319)"/><g transform="translate(1336 686)"><path class="h" d="M330.76,3.7,330.4,7.863,312.939,205.771,12.822,201.312.7,10.944.284,4.337,0,0Z"/><path class="i" d="M330.76,3.7,330.4,7.863.284,4.337,0,0Z"/><circle class="j" cx="0.824" cy="0.824" r="0.824" transform="translate(4.08 1.581)"/><circle class="k" cx="0.824" cy="0.824" r="0.824" transform="translate(6.674 1.581)"/><circle class="l" cx="0.824" cy="0.824" r="0.824" transform="translate(9.228 1.581)"/><path class="m" d="M154.046,19.017l-4.053,143.432a2.824,2.824,0,0,1-2.824,2.824H27.138a2.824,2.824,0,0,1-2.824-2.824L18.91,19.017a2.824,2.824,0,0,1,2.824-2.837h129.5A2.824,2.824,0,0,1,154.046,19.017Z" transform="translate(6.639 5.681)"/><path class="n" d="M154.049,19.017v5.026H18.9V19.017a2.824,2.824,0,0,1,2.837-2.837h129.5A2.824,2.824,0,0,1,154.049,19.017Z" transform="translate(6.636 5.681)"/><circle class="j" cx="1.513" cy="1.513" r="1.513" transform="translate(29.805 24.928)"/><circle class="k" cx="1.513" cy="1.513" r="1.513" transform="translate(34.561 24.928)"/><circle class="l" cx="1.513" cy="1.513" r="1.513" transform="translate(39.222 24.928)"/><rect class="o" width="21.374" height="4.513" rx="1.67" transform="translate(36.074 45.842)"/><rect class="o" width="36.223" height="4.513" rx="1.67" transform="translate(36.074 52.449)"/><rect class="o" width="36.223" height="4.513" rx="1.67" transform="translate(63.339 45.842)"/><rect class="o" width="36.223" height="4.513" rx="1.67" transform="translate(52.747 59.07)"/><rect class="o" width="36.223" height="4.513" rx="1.67" transform="translate(37.587 68.568)"/><rect class="o" width="36.223" height="4.513" rx="1.67" transform="translate(52.747 75.985)"/><rect class="o" width="10.552" height="4.513" rx="1.67" transform="translate(37.587 75.985)"/><rect class="o" width="21.374" height="4.513" rx="1.67" transform="translate(36.817 85.551)"/><rect class="o" width="36.223" height="4.513" rx="1.67" transform="translate(36.817 92.171)"/><rect class="o" width="36.223" height="4.513" rx="1.67" transform="translate(64.082 85.551)"/><rect class="o" width="36.223" height="4.513" rx="1.67" transform="translate(53.49 98.792)"/><rect class="o" width="36.223" height="4.513" rx="1.67" transform="translate(38.33 108.29)"/><rect class="o" width="36.223" height="4.513" rx="1.67" transform="translate(53.49 115.694)"/><rect class="o" width="10.552" height="4.513" rx="1.67" transform="translate(38.33 115.694)"/><rect class="o" width="36.223" height="4.513" rx="1.67" transform="translate(65.622 123.827)"/><rect class="o" width="36.223" height="4.513" rx="1.67" transform="translate(55.03 138.419)"/><rect class="o" width="36.223" height="4.513" rx="1.67" transform="translate(39.871 146.553)"/><rect class="o" width="36.223" height="4.513" rx="1.67" transform="translate(55.03 153.97)"/><rect class="o" width="10.552" height="4.513" rx="1.67" transform="translate(39.871 153.97)"/><rect class="o" width="10.552" height="4.513" rx="1.67" transform="translate(39.033 138.419)"/><rect class="o" width="10.552" height="4.513" rx="1.67" transform="translate(38.33 123.827)"/><rect class="o" width="10.552" height="4.513" rx="1.67" transform="translate(52.706 123.827)"/><rect class="o" width="10.552" height="4.513" rx="1.67" transform="translate(41.37 130.772)"/><rect class="o" width="64.055" height="4.513" rx="1.67" transform="translate(54.165 130.448)"/><path class="m" d="M264.883,27.907,251.372,171.339a2.824,2.824,0,0,1-2.824,2.824l-120.044-5.4a2.824,2.824,0,0,1-2.824-2.824l4.053-138.027a2.824,2.824,0,0,1,2.824-2.837h129.5a2.824,2.824,0,0,1,2.824,2.837Z" transform="translate(44.125 8.802)"/><path class="n" d="M263.819,27.907v4.958H128.71V27.907a2.824,2.824,0,0,1,2.824-2.837h129.5A2.824,2.824,0,0,1,263.819,27.907Z" transform="translate(45.189 8.802)"/><circle class="j" cx="1.513" cy="1.513" r="1.513" transform="translate(178.114 36.939)"/><circle class="k" cx="1.513" cy="1.513" r="1.513" transform="translate(182.883 36.939)"/><circle class="l" cx="1.513" cy="1.513" r="1.513" transform="translate(187.545 36.939)"/><rect class="o" width="21.374" height="4.513" rx="1.67" transform="matrix(0.999, 0.037, -0.037, 0.999, 183.627, 52.275)"/><rect class="o" width="36.223" height="4.513" rx="1.67" transform="matrix(0.999, 0.037, -0.037, 0.999, 183.389, 58.895)"/><rect class="o" width="36.223" height="4.513" rx="1.67" transform="matrix(0.999, 0.037, -0.037, 0.999, 210.868, 53.272)"/><rect class="o" width="36.223" height="4.513" rx="1.67" transform="matrix(0.999, 0.037, -0.037, 0.999, 199.799, 66.126)"/><rect class="o" width="36.223" height="4.513" rx="1.67" transform="matrix(1, 0.04, -0.04, 1, 184.178, 75.72)"/><rect class="o" width="36.223" height="4.513" rx="1.67" transform="matrix(0.999, 0.037, -0.037, 0.999, 199.18, 83.007)"/><rect class="o" width="10.552" height="4.513" rx="1.67" transform="matrix(0.999, 0.037, -0.037, 0.999, 184.028, 82.453)"/><rect class="o" width="21.374" height="4.513" rx="1.67" transform="matrix(0.999, 0.037, -0.037, 0.999, 182.902, 91.998)"/><rect class="o" width="36.223" height="4.513" rx="1.67" transform="matrix(0.999, 0.037, -0.037, 0.999, 182.663, 98.619)"/><rect class="o" width="36.223" height="4.513" rx="1.67" transform="matrix(0.999, 0.037, -0.037, 0.999, 210.156, 92.995)"/><rect class="o" width="36.223" height="4.513" rx="1.67" transform="matrix(0.999, 0.037, -0.037, 0.999, 199.087, 105.822)"/><rect class="o" width="36.223" height="4.513" rx="1.67" transform="matrix(0.999, 0.037, -0.037, 0.999, 183.584, 114.76)"/><rect class="o" width="36.223" height="4.513" rx="1.67" transform="matrix(0.999, 0.037, -0.037, 0.999, 198.469, 122.731)"/><rect class="o" width="10.552" height="4.513" rx="1.67" transform="matrix(0.999, 0.037, -0.037, 0.999, 183.303, 122.176)"/><rect class="o" width="36.223" height="4.513" rx="1.67" transform="matrix(0.999, 0.037, -0.037, 0.999, 210.293, 131.292)"/><rect class="o" width="36.223" height="4.513" rx="1.67" transform="matrix(0.999, 0.037, -0.037, 0.999, 199.161, 145.48)"/><rect class="o" width="36.223" height="4.513" rx="1.67" transform="matrix(0.999, 0.037, -0.037, 0.999, 183.721, 153.056)"/><rect class="o" width="36.223" height="4.513" rx="1.67" transform="matrix(0.999, 0.037, -0.037, 0.999, 198.605, 161.027)"/><rect class="o" width="10.552" height="4.513" rx="1.67" transform="matrix(1, 0.04, -0.04, 1, 183.023, 161.196)"/><rect class="o" width="10.552" height="4.513" rx="1.67" transform="matrix(0.999, 0.037, -0.037, 0.999, 183.173, 144.895)"/><rect class="o" width="10.552" height="4.513" rx="1.67" transform="matrix(0.999, 0.037, -0.037, 0.999, 183.019, 130.294)"/><rect class="o" width="10.552" height="4.513" rx="1.67" transform="matrix(0.999, 0.037, -0.037, 0.999, 197.393, 130.82)"/><rect class="o" width="10.552" height="4.513" rx="1.67" transform="matrix(0.999, 0.037, -0.037, 0.999, 185.799, 137.349)"/><rect class="o" width="64.055" height="4.513" rx="1.67" transform="matrix(0.999, 0.037, -0.037, 0.999, 198.598, 137.492)"/></g><g transform="translate(-3 -1)"><path class="p" d="M208.81,460.991s83.852-23.065,146.849-10.01c50.01,5.214,115.122,18.754,120.336,50.522-3.624,31.728-16.046,43.853-16.046,43.853l-226.633,2.088S214.536,524.123,208.81,460.991Z" transform="translate(1222.264 551.556)"/><path class="q" d="M242.71,291.9v30.057a47.746,47.746,0,0,0,44.459-1.873c-.377-20.774,0-34.826,0-34.826S243.882,281.321,242.71,291.9Z" transform="translate(1234.035 495.15)"/><path class="q" d="M221.143,254.39,211.12,273.049s1.347,6.251,10.023,7.033S221.143,254.39,221.143,254.39Z" transform="translate(1223.066 484.681)"/><path class="q" d="M224.206,246.707s-12.125,43.327-4.3,66.756,19.9,21.084,30.461,17.177,69.868-22.256,75.728-76.119-37.723-53.485-52.233-49.969S237.867,216.65,224.206,246.707Z" transform="translate(1225.203 466.914)"/><path class="r" d="M169.591,390.144s-3.745-4.406-6.4-4.635-5.726,2.317-5.726,2.317-2.694-3.435-5.295-2.331-9.431,5.753-11.02,7.962-.229,3.449,1.536,2.492.66,1.118-1.347,2.694-2.694,4.486,1.1,5.146,9.04-4.635,10.36-4.042,5.295,7.289,8.38,6.615S169.591,390.144,169.591,390.144Z" transform="translate(1198.27 530.131)"/><path class="p" d="M259.6,329.26s23.5,11.937,36.16.822,42.128-83.394,30.609-103.738-14.954-24.937-60.518-28.939-51.1,34.476-46.48,41.764,19.872,9.9,19.872,9.9l2.29,13.85,16.935,18.161S269.343,292.911,259.6,329.26Z" transform="translate(1225.469 464.792)"/><path class="r" d="M390.018,396.964s14.335-9.714,17.649-9.714,4.405,2.21,6.831,1.994,4.85-2.695,8.824-.889,11.249,5.079,11.02,7.275-3.53,2.695-5.066,2.358,7.275,1.617,6.17,3.6-.445,5.079-13.472,0c0,0-10.589,11.91-17.433,13.472S369.3,412.174,390.018,396.964Z" transform="translate(1282.602 530.816)"/><path class="s" d="M224.612,508.26s94.307,10.522,151.053-9.794c0-11.977-5.2-73.734-5.2-73.734s23.954,43.583,34.382,46.426c12.125,1.6,28.535-2.2,44.311-8.272,18.74-7.235,38.747-6.992,30.771-28.494C473.555,417.2,467.8,417.429,467.8,417.429l-43.233,13.85S390.888,344.287,367.621,324.5s-123.8-18.228-145.677,0C189.61,360.427,192.3,424.731,192.3,424.731s-16.665-9.08-22.391-10.131-21.354,2.088-18.228,23.442c10.414,12.5,38.854,33.87,55.628,29.181s17.824-10.455,17.824-10.455S218.441,490.813,224.612,508.26Z" transform="translate(1202.286 504.072)"/></g><g transform="translate(-3 -1)"><rect class="t" width="163.137" height="135.95" rx="20.83" transform="translate(1409.612 853.533)"/><rect class="u" width="144.95" height="121.333" rx="16.37" transform="translate(1409.612 868.137)"/><path class="t" d="M426.717,495.936v23.819a16.382,16.382,0,0,1-16.4,16.382H202.226a16.383,16.383,0,0,1-16.4-16.382V495.936a16.4,16.4,0,0,1,16.4-16.4H410.321a16.4,16.4,0,0,1,16.4,16.4Z" transform="translate(1214.284 562.862)"/><path class="u" d="M355.676,498V517.68a18.457,18.457,0,0,1-18.471,18.457H204.341A18.457,18.457,0,0,1,185.87,517.68V498a18.457,18.457,0,0,1,18.471-18.457H337.206A18.457,18.457,0,0,1,355.676,498Z" transform="translate(1214.298 562.862)"/><path class="v" d="M266.586,406.268V566.226H239.83V406.268a13.378,13.378,0,0,1,10.023-12.96,13.785,13.785,0,0,1,3.355-.418A13.392,13.392,0,0,1,266.586,406.268Z" transform="translate(1233.035 532.774)"/><path class="w" d="M259.89,406.16V566.118H239.83V406.16a13.378,13.378,0,0,1,10.023-12.96,13.472,13.472,0,0,1,10.037,12.96Z" transform="translate(1233.035 532.882)"/></g></g><g transform="translate(-112.976)"><g transform="translate(-82 -74)"><rect class="e" width="106.392" height="106.392" rx="18.71" transform="translate(1291.243 396.346)"/><rect class="f" width="106.392" height="106.392" rx="18.71" transform="translate(1283.739 396.346)"/><path class="f" d="M142.84,78.97l28.036,21.556V78.97Z" transform="translate(1199.356 423.768)"/><rect class="e" width="8.097" height="21.556" transform="translate(1370.219 502.738)"/></g><text class="x" transform="translate(1218 391)"><tspan x="0" y="0">C++</tspan></text></g><g transform="translate(-112.976)"><g transform="translate(0 -48)"><circle class="e" cx="43.206" cy="43.206" r="43.206" transform="translate(1584.646 565.748)"/><rect class="e" width="6.628" height="17.649" transform="translate(1636.636 652.161)"/><path class="e" d="M348.85,188.133l17.083,20.155,7.342-20.788Z" transform="translate(1270.891 461.454)"/><path class="f" d="M353.52,188.133l17.1,20.155,7.342-20.788Z" transform="translate(1272.513 461.454)"/><circle class="f" cx="43.206" cy="43.206" r="43.206" transform="translate(1591.22 565.748)"/></g><text class="y" transform="translate(1610 566)"><tspan x="0" y="0">PHP</tspan></text></g><g transform="translate(-112.976)"><g transform="translate(176 -43)"><circle class="z" cx="61.459" cy="61.459" r="61.459" transform="translate(1546.316 471.994)"/><circle class="aa" cx="61.459" cy="61.459" r="61.459" transform="translate(1536.953 471.994)"/></g><text class="ab" transform="translate(1739 499)"><tspan x="0" y="0">Tools</tspan></text></g><g transform="translate(-112.976)"><g transform="translate(-94)"><circle class="z" cx="54.375" cy="54.375" r="54.375" transform="translate(1225.592 539.774)"/><circle class="aa" cx="54.375" cy="54.375" r="54.375" transform="translate(1217.32 539.774)"/><rect class="z" width="7.706" height="25.517" transform="translate(1308.124 634.66)"/><path class="aa" d="M104.06,189.8l18.174,14.793V170.6Z" transform="translate(1185.89 455.586)"/></g><text class="ac" transform="translate(1137 601)"><tspan x="0" y="0">Python</tspan></text></g><g transform="translate(-112.976)"><g transform="translate(38 -174)"><rect class="ad" width="145.394" height="98.941" rx="16.22" transform="translate(1644.167 416.771)"/><rect class="ad" width="9.485" height="29.572" transform="translate(1711.111 515.793)"/><path class="ad" d="M451.442,88.42l-34.772,29.9V88.42Z" transform="translate(1294.441 427.049)"/><path class="s" d="M458.482,88.42l-34.772,29.9V88.42Z" transform="translate(1296.886 427.049)"/><rect class="s" width="145.394" height="98.941" rx="16.22" transform="translate(1652.25 416.771)"/></g><text class="ae" transform="translate(1715 300)"><tspan x="0" y="0">Github</tspan></text></g><g transform="translate(-112.976)"><g transform="translate(14 -156)"><rect class="af" width="63.051" height="65.543" rx="10.03" transform="translate(1428.5 437.195)"/><rect class="ag" width="63.051" height="65.543" rx="10.03" transform="translate(1420.296 437.195)"/><path class="ag" d="M224.21,78.86l20.532,17.662V78.86Z" transform="translate(1227.611 423.73)"/><rect class="af" width="6.628" height="17.649" transform="translate(1472.353 502.59)"/></g><text class="ah" transform="translate(1449 324)"><tspan x="0" y="0">JS</tspan></text></g><g transform="translate(-112.976)"><rect class="ai" width="128.985" height="88.19" rx="16.22" transform="translate(1372.329 457.365)"/><rect class="ai" width="7.841" height="24.452" transform="translate(1386.394 545.825)"/><path class="ai" d="M215.517,176.07,186.78,200.792V176.07Z" transform="translate(1199.614 369.485)"/><path class="aj" d="M221.35,176.07,192.6,200.792V176.07Z" transform="translate(1201.635 369.485)"/><rect class="aj" width="153.985" height="88.19" rx="16.22" transform="translate(1380.533 457.365)"/><text class="ak" transform="translate(1394 508)"><tspan x="0" y="0">Open Source</tspan></text></g><g transform="translate(-112.976)"><g transform="translate(47.361 28.564)"><rect class="al" width="131.841" height="89.035" rx="12.58" transform="translate(1704.766 631.184)"/><rect class="al" width="9.774" height="30.507" transform="translate(1731.868 720.545)"/><path class="al" d="M461.974,220.86,426.13,251.692V220.86Z" transform="translate(1305.738 499.359)"/><path class="am" d="M467.084,220.86,431.24,251.692V220.86Z" transform="translate(1310.402 499.359)"/><rect class="am" width="131.841" height="89.035" rx="12.58" transform="translate(1713.774 631.184)"/></g><text class="ak" transform="translate(1784 715)"><tspan x="0" y="0">DevOps</tspan></text></g><g transform="translate(-112.976)"><g transform="translate(-195.132 32)"><circle class="ad" cx="63.382" cy="63.382" r="63.382" transform="translate(1250.199 679.28)"/><circle class="s" cx="63.382" cy="63.382" r="63.382" transform="translate(1240.547 679.28)"/></g><text class="an" transform="translate(1064 781)"><tspan x="0" y="0">Experience</tspan></text></g></g></svg>